<?xml version="1.0" standalone="no"?><!DOCTYPE svg PUBLIC "-//W3C//DTD SVG 1.1//EN" "http://www.w3.org/Graphics/SVG/1.1/DTD/svg11.dtd"><svg t="1604329952652" class="icon" viewBox="0 0 1024 1024" version="1.1" xmlns="http://www.w3.org/2000/svg" p-id="2739" xmlns:xlink="http://www.w3.org/1999/xlink" width="32" height="32"><defs><style type="text/css"></style></defs><path d="M853.333333 85.333333v853.333334H256a85.333333 85.333333 0 0 1-85.333333-85.333334V170.666667a85.333333 85.333333 0 0 1 85.333333-85.333334h597.333333z m-362.666666 256h-128a42.666667 42.666667 0 0 0-42.368 37.674667L320 384v190.293333a33.664 33.664 0 0 0 49.450667 29.738667l3.882666-2.432 28.416-20.48a42.666667 42.666667 0 0 1 45.226667-2.858667l4.608 2.901334 28.416 20.437333a33.664 33.664 0 0 0 53.034667-22.741333l0.298666-4.565334V384a42.666667 42.666667 0 0 0-37.674666-42.368L490.666667 341.333333zM768 170.666667H256v85.333333h512V170.666667z" p-id="2740"></path></svg>