<?xml version="1.0" standalone="no"?>
<!DOCTYPE svg PUBLIC "-//W3C//DTD SVG 1.1//EN" "http://www.w3.org/Graphics/SVG/1.1/DTD/svg11.dtd"><svg class="icon"
    viewBox="0 0 1024 1024" version="1.1" xmlns="http://www.w3.org/2000/svg" xmlns:xlink="http://www.w3.org/1999/xlink"
    width="32" height="32">
    <path
        d="M853.333333 85.333333v853.333334H256a85.333333 85.333333 0 0 1-85.333333-85.333334V170.666667a85.333333 85.333333 0 0 1 85.333333-85.333334h597.333333z m-85.333333 256h-234.666667v232.96a33.664 33.664 0 0 1-53.333333 27.306667l-28.416-20.48a42.666667 42.666667 0 0 0-49.834667 0l-28.416 20.48a33.664 33.664 0 0 1-53.333333-27.306667V341.333333H256v512h512V341.333333z m-298.666667 0H384v176.682667l1.109333-0.469333a106.752 106.752 0 0 1 83.114667 0l1.109333 0.512V341.333333z m298.666667-170.666666H256v85.333333h512V170.666667z">
    </path>
</svg>