<?xml version="1.0" standalone="no"?><!DOCTYPE svg PUBLIC "-//W3C//DTD SVG 1.1//EN" "http://www.w3.org/Graphics/SVG/1.1/DTD/svg11.dtd"><svg t="1603910981166" class="icon" viewBox="0 0 1102 1024" version="1.1" xmlns="http://www.w3.org/2000/svg" p-id="3800" xmlns:xlink="http://www.w3.org/1999/xlink" width="34.4375" height="32"><defs><style type="text/css"></style></defs><path d="M932.036923 449.555692a76.366769 76.366769 0 0 0-75.697231-6.4l-4.608-4.982154-28.790154 27.72677 2.835693 3.190154a75.835077 75.835077 0 0 0 19.554461 105.216 75.894154 75.894154 0 0 0 105.905231-18.845539c23.827692-34.461538 15.300923-82.097231-19.180308-105.905231z m-575.763692-88.851692l18.845538-20.283077-29.499077-26.978461-20.283077 22.016 6.774154 6.4a205.824 205.824 0 0 0-152.123077-31.980308c-54.744615 9.944615-102.360615 40.172308-133.986461 85.996308A208.305231 208.305231 0 0 0 11.874462 551.581538c9.944615 54.744615 40.172308 102.360615 86.016 133.986462a206.375385 206.375385 0 0 0 118.350769 37.316923c65.752615 0 130.796308-31.271385 170.948923-89.206154a208.305231 208.305231 0 0 0 34.126769-155.667692c-8.172308-45.863385-31.271385-86.370462-65.043692-117.287385z m-2.126769 249.501538c-52.972308 76.051692-157.814154 94.897231-233.865847 41.944616a165.612308 165.612308 0 0 1-69.316923-108.051692 166.990769 166.990769 0 0 1 27.372308-125.459693 165.612308 165.612308 0 0 1 108.051692-69.316923 169.806769 169.806769 0 0 1 29.853539-2.835692c34.126769 0 67.170462 10.299077 95.606154 30.208a165.612308 165.612308 0 0 1 69.316923 108.051692 163.741538 163.741538 0 0 1-27.017846 125.44z m56.75323-367.734153l29.538462 27.214769-43.598769 47.300923-29.538462-27.214769 43.598769-47.300923z m418.816 173.292307l-28.829538 27.963077-43.539692-44.898461 28.829538-27.963077 43.539692 44.898461z m-108.780307-111.931077l-28.790154 27.72677 43.716923 44.780307 28.790154-27.726769-43.716923-44.780308z m-63.606154-65.772307c7.443692-8.152615 14.198154-17.408 19.534769-27.352616a138.436923 138.436923 0 0 0-56.516923-187.667692 138.436923 138.436923 0 0 0-187.667692 56.516923 138.476308 138.476308 0 0 0 2.855384 136.132923l-2.835692 3.190154 13.489231 12.445538a137.393231 137.393231 0 0 0 43.008 35.899077c46.217846 24.871385 99.879385 20.617846 141.115077-6.045538l-3.544616 3.190154 43.342769 44.8 28.790154-28.081231-41.590154-43.008zM216.576 588.189538a76.051692 76.051692 0 1 0 0-152.123076 76.051692 76.051692 0 0 0 0 152.123076z m790.803692-249.501538c-94.188308-65.398154-223.901538-42.299077-289.299692 51.889231-65.398154 94.188308-42.299077 223.901538 51.889231 289.299692a206.375385 206.375385 0 0 0 118.350769 37.316923c65.752615 0 130.796308-31.271385 170.948923-89.206154 65.398154-93.833846 42.299077-223.547077-51.889231-289.299692z m19.2 266.909538c-52.972308 76.071385-157.814154 94.916923-233.865846 41.944616-76.071385-52.972308-94.916923-157.814154-41.944615-233.865846a167.581538 167.581538 0 0 1 137.905231-71.798154c33.043692 0 66.461538 9.590154 95.606153 29.853538 76.051692 52.972308 94.897231 157.814154 42.299077 233.865846zM554.968615 1017.501538a138.614154 138.614154 0 1 0 0-277.208615 138.614154 138.614154 0 0 0 0 277.208615z m168.172308-361.944615l29.538462 27.234462-20.48 22.212923-29.538462-27.21477 20.48-22.212923z m-42.436923 45.804308l29.538462 27.214769-43.59877 47.300923-29.538461-27.214769 43.598769-47.300923zM276.676923 574.306462l-28.790154 28.08123 43.716923 44.780308 28.790154-28.081231-43.716923-44.780307z m108.760615 112.403692l-28.829538 27.963077-43.559385-44.898462 28.829539-27.963077 43.559384 44.898462z m65.398154 67.072l-43.716923-44.780308-28.435692 27.726769 43.362461 44.780308 28.790154-27.726769z" p-id="3801"></path></svg>