<?xml version="1.0" standalone="no"?><!DOCTYPE svg PUBLIC "-//W3C//DTD SVG 1.1//EN" "http://www.w3.org/Graphics/SVG/1.1/DTD/svg11.dtd"><svg t="1603893861591" class="icon" viewBox="0 0 1024 1024" version="1.1" xmlns="http://www.w3.org/2000/svg" p-id="6732" xmlns:xlink="http://www.w3.org/1999/xlink" width="32" height="32"><defs><style type="text/css"></style></defs><path d="M855.589831 896.962902c-37.024154 0-68.304895-24.61477-68.304895-53.749978 0-30.135916 30.003976-53.744903 68.304895-53.744903 18.530345 0 33.6049-12.463175 33.6049-27.784354V100.714224c0-14.800527-15.702788-27.784354-33.6049-27.784354H270.323009c-75.529071 0-136.976175 49.03772-136.976175 109.312596v659.519128c0 29.730964 14.305248 57.397588 40.280006 77.90296 25.654044 20.252659 59.994759 31.406591 96.695154 31.406591h586.724242c18.530345 0 33.605915-12.46216 33.605915-27.781309 0.001015-14.517366-15.728161-26.326934-35.06232-26.326934z m-136.976175-53.749978c0 17.994469 6.194035 36.879021 17.542831 53.749978H270.323009c-37.027199 0-68.30997-24.61477-68.30997-53.749978 0-30.135916 30.004991-53.744903 68.30997-53.744903h467.236093c-12.739232 18.375063-18.945446 36.005178-18.945446 53.744903zM200.561709 182.241451c0-19.369681 13.777491-37.62194 34.69898-46.524787v600.203348c-11.860314 2.527142-23.043679 6.058037-34.69898 10.960083v-564.638644z m621.424237-53.747948v603.953465H303.927909V128.493503h518.058037z" p-id="6733"></path></svg>