<?xml version="1.0" standalone="no"?><!DOCTYPE svg PUBLIC "-//W3C//DTD SVG 1.1//EN" "http://www.w3.org/Graphics/SVG/1.1/DTD/svg11.dtd"><svg t="1604330320824" class="icon" viewBox="0 0 1120 1024" version="1.1" xmlns="http://www.w3.org/2000/svg" p-id="3426" xmlns:xlink="http://www.w3.org/1999/xlink" width="35" height="32"><defs><style type="text/css"></style></defs><path d="M859.227839 496.182463h220.156698a41.424833 41.424833 0 0 1 0 82.849666H930.906764L532.018202 1024 80.068617 520.385736A325.813295 325.813295 0 0 1 0.011636 305.348962a325.813295 325.813295 0 0 1 36.770358-153.132249A290.43928 290.43928 0 0 1 136.387773 41.440193 239.240048 239.240048 0 0 1 273.694804 0.01536 256.461608 256.461608 0 0 1 465.4592 93.104873l64.697211 69.817134 64.231764-71.678925A259.719741 259.719741 0 0 1 685.615898 22.82229 256.927055 256.927055 0 0 1 791.272495 0.01536a253.668922 253.668922 0 0 1 139.634269 40.493938 285.784804 285.784804 0 0 1 99.140331 110.77652 333.260456 333.260456 0 0 1 36.770357 153.132248 343.500302 343.500302 0 0 1-18.617902 110.776521h-153.597696l-46.544757-126.601738a36.30491 36.30491 0 0 0-69.817134 0l-58.646393 172.215599-78.660638-214.105879a36.30491 36.30491 0 0 0-69.817135 0L512.003956 415.194587H381.678639a39.563043 39.563043 0 0 0-37.701253 41.424833 39.097595 39.097595 0 0 0 37.701253 40.959385h154.063143a37.701253 37.701253 0 0 0 34.908568-26.065063L605.093469 374.700649l77.264296 218.760355a36.770358 36.770358 0 0 0 70.282582 0l60.508183-177.335522 24.668721 56.319155a38.632148 38.632148 0 0 0 21.410588 23.737826z" p-id="3427"></path></svg>