<?xml version="1.0" encoding="ISO-8859-1" standalone="yes"?>
<svg width="289.6" height="450.5"
     xmlns="http://www.w3.org/2000/svg" baseProfile="tiny" version="1.1">
  <defs>
    <marker id="ArrowEnd" viewBox="0 0 10 10" refX="0" refY="5"
     markerUnits="strokeWidth"
     markerWidth="4"
     markerHeight="3"
     orient="auto">
        <path d="M 0 0 L 10 5 L 0 10 z" />
    </marker>
    <marker id="ArrowStart" viewBox="0 0 10 10" refX="10" refY="5"
     markerUnits="strokeWidth"
     markerWidth="4"
     markerHeight="3"
     orient="auto">
        <path d="M 10 0 L 0 5 L 10 10 z" />
    </marker> </defs>
<g>
<defs><linearGradient id="1" x1="155.352" y1="450.482" x2="155.352" y2="140" gradientUnits="userSpaceOnUse">
<stop offset="0" style="stop-color: #9ded37"/>
<stop offset="1" style="stop-color: #f8ff76"/>
</linearGradient>
</defs><path style="fill: url(#1); stroke: #000000; stroke-width: 1" d="M 132.7 145.2 C 211.7 237.5 150.2 295.6 148.2 342.7 C 146.9 374.9 171.1 410.1 185.4 445.2 C 185.4 445.2 185.4 445.2 132.7 352.9 C 106.4 306.8 159 306.8 159 237.5 C 159 191.4 132.7 145.2 132.7 145.2 z"/>
<defs><radialGradient id="2" cx="145.352" cy="45.2408" r="47.7391" fx="145.352" fy="45.2408" gradientUnits="userSpaceOnUse">
<stop offset="0" style="stop-color: #ffa048"/>
<stop offset="1" style="stop-color: #ff472e"/>
</radialGradient>
</defs><path style="fill: url(#2); stroke: #000000; stroke-width: 1" d="M 155.4 45.2 C 155.4 67.3 150.9 85.2 145.4 85.2 C 139.8 85.2 135.4 67.3 135.4 45.2 C 135.4 23.2 139.8 5.2 145.4 5.2 C 150.9 5.2 155.4 23.2 155.4 45.2 z"/>
<defs><radialGradient id="3" cx="170.135" cy="48.3609" r="48.0339" fx="170.135" fy="48.3609" gradientUnits="userSpaceOnUse">
<stop offset="0" style="stop-color: #ffa048"/>
<stop offset="1" style="stop-color: #ff472e"/>
</radialGradient>
</defs><path style="fill: url(#3); stroke: #000000; stroke-width: 1" d="M 179.8 50.8 C 174.4 72.2 165.6 88.5 160.2 87.1 C 154.9 85.7 155 67.3 160.4 45.9 C 165.9 24.5 174.7 8.2 180 9.6 C 185.4 11 185.3 29.4 179.8 50.8 z"/>
<g>
<defs><radialGradient id="4" cx="192.599" cy="57.0958" r="48.4248" fx="192.599" fy="57.0958" gradientUnits="userSpaceOnUse">
<stop offset="0" style="stop-color: #ffa048"/>
<stop offset="1" style="stop-color: #ff472e"/>
</radialGradient>
</defs><path style="fill: url(#4); stroke: #000000; stroke-width: 1" d="M 201.5 61.7 C 191.3 81.3 179.1 95.1 174.2 92.6 C 169.3 90.1 173.6 72.1 183.7 52.5 C 193.9 32.9 206.1 19 211 21.6 C 215.9 24.1 211.6 42.1 201.5 61.7 z"/>
<defs><radialGradient id="5" cx="213.162" cy="71.2758" r="48.6431" fx="213.162" fy="71.2758" gradientUnits="userSpaceOnUse">
<stop offset="0" style="stop-color: #ffa048"/>
<stop offset="1" style="stop-color: #ff472e"/>
</radialGradient>
</defs><path style="fill: url(#5); stroke: #000000; stroke-width: 1" d="M 220.6 77.9 C 205.9 94.4 190.6 104.8 186.5 101.1 C 182.4 97.4 191 81.1 205.7 64.6 C 220.4 48.1 235.7 37.8 239.8 41.4 C 243.9 45.1 235.3 61.5 220.6 77.9 z"/>
</g>
<defs><radialGradient id="6" cx="229.082" cy="90.7439" r="48.5357" fx="229.082" fy="90.7439" gradientUnits="userSpaceOnUse">
<stop offset="0" style="stop-color: #ffa048"/>
<stop offset="1" style="stop-color: #ff472e"/>
</radialGradient>
</defs><path style="fill: url(#6); stroke: #000000; stroke-width: 1" d="M 234.5 99.2 C 215.9 111.1 198.3 116.9 195.4 112.3 C 192.4 107.6 205.1 94.2 223.7 82.3 C 242.3 70.4 259.8 64.6 262.8 69.2 C 265.8 73.9 253.1 87.3 234.5 99.2 z"/>
<defs><radialGradient id="7" cx="239.796" cy="113.308" r="48.1584" fx="239.796" fy="113.308" gradientUnits="userSpaceOnUse">
<stop offset="0" style="stop-color: #ffa048"/>
<stop offset="1" style="stop-color: #ff472e"/>
</radialGradient>
</defs><path style="fill: url(#7); stroke: #000000; stroke-width: 1" d="M 242.9 122.8 C 222 129.7 203.5 131.1 201.8 125.8 C 200.1 120.6 215.7 110.7 236.7 103.8 C 257.6 96.9 276.1 95.6 277.8 100.8 C 279.5 106 263.9 115.9 242.9 122.8 z"/>
<g>
<defs><radialGradient id="8" cx="244.53" cy="136.94" r="47.7879" fx="244.53" fy="136.94" gradientUnits="userSpaceOnUse">
<stop offset="0" style="stop-color: #ffa048"/>
<stop offset="1" style="stop-color: #ff472e"/>
</radialGradient>
</defs><path style="fill: url(#8); stroke: #000000; stroke-width: 1" d="M 245.4 146.9 C 223.4 148.9 205.2 146 204.7 140.5 C 204.2 135 221.6 129 243.6 127 C 265.6 125 283.9 127.8 284.4 133.3 C 284.9 138.8 267.4 144.9 245.4 146.9 z"/>
<defs><radialGradient id="9" cx="243.651" cy="161.904" r="47.8795" fx="243.651" fy="161.904" gradientUnits="userSpaceOnUse">
<stop offset="0" style="stop-color: #ffa048"/>
<stop offset="1" style="stop-color: #ff472e"/>
</radialGradient>
</defs><path style="fill: url(#9); stroke: #000000; stroke-width: 1" d="M 242.1 171.8 C 220.3 168.3 203.3 161 204.2 155.5 C 205 150.1 223.5 148.5 245.2 152 C 267 155.6 284 162.8 283.1 168.3 C 282.3 173.7 263.9 175.3 242.1 171.8 z"/>
</g>
<g>
<g>
<g>
<defs><radialGradient id="10" cx="236.069" cy="186.194" r="48.3388" fx="236.069" fy="186.194" gradientUnits="userSpaceOnUse">
<stop offset="0" style="stop-color: #ffa048"/>
<stop offset="1" style="stop-color: #ff472e"/>
</radialGradient>
</defs><path style="fill: url(#10); stroke: #000000; stroke-width: 1" d="M 232 195.3 C 211.8 186.3 197.3 174.9 199.6 169.8 C 201.8 164.8 220 168 240.2 177.1 C 260.3 186.1 274.8 197.5 272.6 202.6 C 270.3 207.6 252.1 204.4 232 195.3 z"/>
<defs><radialGradient id="11" cx="223.077" cy="207.529" r="48.6188" fx="223.077" fy="207.529" gradientUnits="userSpaceOnUse">
<stop offset="0" style="stop-color: #ffa048"/>
<stop offset="1" style="stop-color: #ff472e"/>
</radialGradient>
</defs><path style="fill: url(#11); stroke: #000000; stroke-width: 1" d="M 216.9 215.4 C 199.6 201.6 188.3 186.9 191.8 182.6 C 195.2 178.3 212 186 229.3 199.7 C 246.6 213.5 257.8 228.1 254.4 232.4 C 250.9 236.8 234.1 229.1 216.9 215.4 z"/>
</g>
<g>
<defs><radialGradient id="12" cx="205.914" cy="224.449" r="48.6182" fx="205.914" fy="224.449" gradientUnits="userSpaceOnUse">
<stop offset="0" style="stop-color: #ffa048"/>
<stop offset="1" style="stop-color: #ff472e"/>
</radialGradient>
</defs><path style="fill: url(#12); stroke: #000000; stroke-width: 1" d="M 198.1 230.7 C 184.4 213.4 176.7 196.5 181.1 193.1 C 185.4 189.7 200 200.9 213.7 218.2 C 227.5 235.5 235.1 252.4 230.8 255.8 C 226.4 259.2 211.8 248 198.1 230.7 z"/>
<defs><radialGradient id="13" cx="184.559" cy="237.407" r="48.3362" fx="184.559" fy="237.407" gradientUnits="userSpaceOnUse">
<stop offset="0" style="stop-color: #ffa048"/>
<stop offset="1" style="stop-color: #ff472e"/>
</radialGradient>
</defs><path style="fill: url(#13); stroke: #000000; stroke-width: 1" d="M 175.4 241.5 C 166.4 221.3 163.2 203.1 168.2 200.9 C 173.3 198.6 184.7 213.2 193.7 233.3 C 202.7 253.5 205.9 271.7 200.9 273.9 C 195.8 276.2 184.4 261.6 175.4 241.5 z"/>
</g>
</g>
<g>
<g>
<defs><radialGradient id="14" cx="160.281" cy="243.964" r="47.8592" fx="160.281" fy="243.964" gradientUnits="userSpaceOnUse">
<stop offset="0" style="stop-color: #ffa048"/>
<stop offset="1" style="stop-color: #ff472e"/>
</radialGradient>
</defs><path style="fill: url(#14); stroke: #000000; stroke-width: 1" d="M 150.4 245.4 C 147.2 223.6 149 205.2 154.4 204.4 C 159.9 203.6 166.9 220.7 170.2 242.5 C 173.4 264.3 171.6 282.7 166.1 283.5 C 160.7 284.3 153.6 267.3 150.4 245.4 z"/>
<defs><radialGradient id="15" cx="135.307" cy="244.504" r="47.8021" fx="135.307" fy="244.504" gradientUnits="userSpaceOnUse">
<stop offset="0" style="stop-color: #ffa048"/>
<stop offset="1" style="stop-color: #ff472e"/>
</radialGradient>
</defs><path style="fill: url(#15); stroke: #000000; stroke-width: 1" d="M 125.4 243.5 C 127.6 221.5 134 204.1 139.4 204.7 C 144.9 205.3 147.5 223.6 145.3 245.5 C 143 267.5 136.7 284.9 131.2 284.3 C 125.7 283.7 123.1 265.4 125.4 243.5 z"/>
</g>
<g>
<defs><radialGradient id="16" cx="111.808" cy="239.15" r="48.183" fx="111.808" fy="239.15" gradientUnits="userSpaceOnUse">
<stop offset="0" style="stop-color: #ffa048"/>
<stop offset="1" style="stop-color: #ff472e"/>
</radialGradient>
</defs><path style="fill: url(#16); stroke: #000000; stroke-width: 1" d="M 102.4 235.9 C 109.5 215 119.6 199.5 124.8 201.3 C 130.1 203.1 128.5 221.5 121.3 242.4 C 114.1 263.3 104 278.8 98.8 277 C 93.6 275.2 95.2 256.8 102.4 235.9 z"/>
<defs><radialGradient id="17" cx="89.3906" cy="228.131" r="48.5494" fx="89.3906" fy="228.131" gradientUnits="userSpaceOnUse">
<stop offset="0" style="stop-color: #ffa048"/>
<stop offset="1" style="stop-color: #ff472e"/>
</radialGradient>
</defs><path style="fill: url(#17); stroke: #000000; stroke-width: 1" d="M 81 222.6 C 93.2 204.2 106.8 191.7 111.4 194.7 C 116 197.8 109.9 215.2 97.7 233.6 C 85.6 252.1 72 264.6 67.4 261.5 C 62.8 258.5 68.9 241.1 81 222.6 z"/>
</g>
</g>
</g>
<g>
<g>
<g>
<defs><radialGradient id="18" cx="53.7557" cy="185.38" r="48.3405" fx="53.7557" fy="185.38" gradientUnits="userSpaceOnUse">
<stop offset="0" style="stop-color: #ffa048"/>
<stop offset="1" style="stop-color: #ff472e"/>
</radialGradient>
</defs><path style="fill: url(#18); stroke: #000000; stroke-width: 1" d="M 49.7 176.3 C 69.8 167.2 88 163.9 90.2 169 C 92.5 174 78 185.4 57.9 194.5 C 37.7 203.6 19.5 206.8 17.3 201.8 C 15 196.8 29.5 185.3 49.7 176.3 z"/>
<defs><radialGradient id="19" cx="46.4327" cy="161.498" r="47.8981" fx="46.4327" fy="161.498" gradientUnits="userSpaceOnUse">
<stop offset="0" style="stop-color: #ffa048"/>
<stop offset="1" style="stop-color: #ff472e"/>
</radialGradient>
</defs><path style="fill: url(#19); stroke: #000000; stroke-width: 1" d="M 44.7 151.6 C 66.5 147.9 84.9 149.2 85.8 154.6 C 86.8 160.1 69.9 167.6 48.1 171.3 C 26.4 175.1 8 173.8 7 168.4 C 6.1 162.9 23 155.4 44.7 151.6 z"/>
</g>
<g>
<defs><radialGradient id="20" cx="45.1827" cy="137.429" r="47.7585" fx="45.1827" fy="137.429" gradientUnits="userSpaceOnUse">
<stop offset="0" style="stop-color: #ffa048"/>
<stop offset="1" style="stop-color: #ff472e"/>
</radialGradient>
</defs><path style="fill: url(#20); stroke: #000000; stroke-width: 1" d="M 45.7 127.4 C 67.8 128.7 85.4 134.1 85.1 139.7 C 84.8 145.2 66.7 148.6 44.6 147.4 C 22.6 146.2 4.9 140.7 5.2 135.2 C 5.6 129.7 23.7 126.2 45.7 127.4 z"/>
<defs><radialGradient id="21" cx="49.6787" cy="112.858" r="48.1368" fx="49.6787" fy="112.858" gradientUnits="userSpaceOnUse">
<stop offset="0" style="stop-color: #ffa048"/>
<stop offset="1" style="stop-color: #ff472e"/>
</radialGradient>
</defs><path style="fill: url(#21); stroke: #000000; stroke-width: 1" d="M 52.7 103.3 C 73.7 110 89.5 119.7 87.8 124.9 C 86.2 130.2 67.7 129 46.7 122.4 C 25.6 115.7 9.9 106.1 11.5 100.8 C 13.2 95.5 31.6 96.7 52.7 103.3 z"/>
</g>
</g>
<g>
<g>
<defs><radialGradient id="22" cx="60.9007" cy="90.3528" r="48.5468" fx="60.9007" fy="90.3528" gradientUnits="userSpaceOnUse">
<stop offset="0" style="stop-color: #ffa048"/>
<stop offset="1" style="stop-color: #ff472e"/>
</radialGradient>
</defs><path style="fill: url(#22); stroke: #000000; stroke-width: 1" d="M 66.4 82 C 84.9 94.1 97.4 107.6 94.4 112.3 C 91.3 116.9 73.9 110.8 55.4 98.7 C 37 86.6 24.4 73.1 27.4 68.4 C 30.5 63.8 47.9 69.9 66.4 82 z"/>
<defs><radialGradient id="23" cx="77.0826" cy="71.3239" r="48.6458" fx="77.0826" fy="71.3239" gradientUnits="userSpaceOnUse">
<stop offset="0" style="stop-color: #ffa048"/>
<stop offset="1" style="stop-color: #ff472e"/>
</radialGradient>
</defs><path style="fill: url(#23); stroke: #000000; stroke-width: 1" d="M 84.5 64.6 C 99.4 80.9 108.2 97.1 104.1 100.8 C 100 104.6 84.6 94.4 69.7 78.1 C 54.8 61.8 46 45.5 50.1 41.8 C 54.2 38.1 69.6 48.3 84.5 64.6 z"/>
</g>
<g>
<defs><radialGradient id="24" cx="96.6928" cy="57.3108" r="48.4711" fx="96.6928" fy="57.3108" gradientUnits="userSpaceOnUse">
<stop offset="0" style="stop-color: #ffa048"/>
<stop offset="1" style="stop-color: #ff472e"/>
</radialGradient>
</defs><path style="fill: url(#24); stroke: #000000; stroke-width: 1" d="M 105.4 52.4 C 116.2 71.6 121.1 89.5 116.3 92.2 C 111.5 94.9 98.8 81.5 88 62.2 C 77.1 43 72.3 25.2 77.1 22.5 C 81.9 19.7 94.6 33.2 105.4 52.4 z"/>
<defs><radialGradient id="25" cx="119.819" cy="47.8708" r="48.0557" fx="119.819" fy="47.8708" gradientUnits="userSpaceOnUse">
<stop offset="0" style="stop-color: #ffa048"/>
<stop offset="1" style="stop-color: #ff472e"/>
</radialGradient>
</defs><path style="fill: url(#25); stroke: #000000; stroke-width: 1" d="M 129.5 45.3 C 135.2 66.6 135.5 85.1 130.2 86.5 C 124.9 87.9 115.9 71.8 110.2 50.5 C 104.4 29.1 104.1 10.7 109.4 9.2 C 114.8 7.8 123.8 24 129.5 45.3 z"/>
</g>
</g>
</g>
<defs><radialGradient id="26" cx="69.0797" cy="209.914" r="48.6339" fx="69.0797" fy="209.914" gradientUnits="userSpaceOnUse">
<stop offset="0" style="stop-color: #ffa048"/>
<stop offset="1" style="stop-color: #ff472e"/>
</radialGradient>
</defs><path style="fill: url(#26); stroke: #000000; stroke-width: 1" d="M 62.6 202.3 C 79.5 188 96 179.8 99.6 184 C 103.2 188.3 92.4 203.3 75.5 217.5 C 58.7 231.8 42.1 240 38.6 235.8 C 35 231.6 45.8 216.6 62.6 202.3 z"/>
<defs><radialGradient id="27" cx="145.352" cy="145.241" r="92.2646" fx="145.352" fy="145.241" gradientUnits="userSpaceOnUse">
<stop offset="0" style="stop-color: #fff82e"/>
<stop offset="1" style="stop-color: #ffffff"/>
</radialGradient>
</defs><path style="fill: url(#27); stroke: #000000; stroke-width: 1" d="M 85.4 145.2 C 85.4 178.4 112.2 205.2 145.4 205.2 C 178.5 205.2 205.4 178.4 205.4 145.2 C 205.4 112.1 178.5 85.2 145.4 85.2 C 112.2 85.2 85.4 112.1 85.4 145.2 z"/>
</g>
</svg>
