<?xml version="1.0" standalone="no"?><!DOCTYPE svg PUBLIC "-//W3C//DTD SVG 1.1//EN" "http://www.w3.org/Graphics/SVG/1.1/DTD/svg11.dtd"><svg t="1603894138781" class="icon" viewBox="0 0 1024 1024" version="1.1" xmlns="http://www.w3.org/2000/svg" p-id="9075" xmlns:xlink="http://www.w3.org/1999/xlink" width="32" height="32"><defs><style type="text/css"></style></defs><path d="M716.619294 400.564706h88.365177l-112.218353 400.564706H610.544941L543.924706 563.2 477.063529 801.129412H395.384471L279.250824 400.564706h89.871058l68.367059 252.988235 72.402824-252.988235H583.68l68.065882 250.639059z" p-id="9076"></path><path d="M111.435294 60.235294A39.152941 39.152941 0 0 1 150.588235 21.082353h570.548706a39.152941 39.152941 0 0 1 28.973177 12.830118l152.274823 167.875764a39.152941 39.152941 0 0 1 10.179765 26.262589V963.764706a39.152941 39.152941 0 0 1-39.152941 39.152941H150.588235A39.152941 39.152941 0 0 1 111.435294 963.764706V60.235294z m78.305882 39.152941v825.22353h644.517648V243.169882L703.789176 99.388235H189.741176z" p-id="9077"></path><path d="M662.588235 60.235294a30.117647 30.117647 0 0 1 51.440941-21.323294l180.705883 180.705882A30.117647 30.117647 0 0 1 873.411765 271.058824h-180.705883a30.117647 30.117647 0 0 1-30.117647-30.117648V60.235294z m60.235294 150.588235h77.884236L722.823529 132.939294V210.823529z" p-id="9078"></path></svg>